<svg xmlns="http://www.w3.org/2000/svg" viewBox="0 0 100 100" fill="none">
  <defs>
    <linearGradient id="gradient" x1="0%" y1="0%" x2="100%" y2="100%">
      <stop offset="0%" style="stop-color:#14B8A6"/>
      <stop offset="100%" style="stop-color:#0D9488"/>
    </linearGradient>
  </defs>
  <rect width="100" height="100" rx="20" fill="url(#gradient)"/>
  <path d="M50 20C33.43 20 20 33.43 20 50C20 66.57 33.43 80 50 80C66.57 80 80 66.57 80 50C80 33.43 66.57 20 50 20ZM50 75C36.19 75 25 63.81 25 50C25 36.19 36.19 25 50 25C63.81 25 75 36.19 75 50C75 63.81 63.81 75 50 75Z" fill="white"/>
  <path d="M50 35C42.27 35 35 42.27 35 50C35 57.73 42.27 65 50 65C57.73 65 65 57.73 65 50" stroke="white" stroke-width="4" stroke-linecap="round"/>
  <circle cx="50" cy="50" r="8" fill="white"/>
  <path d="M58 42L70 30" stroke="white" stroke-width="4" stroke-linecap="round"/>
  <path d="M70 30L70 40" stroke="white" stroke-width="3" stroke-linecap="round"/>
  <path d="M70 30L60 30" stroke="white" stroke-width="3" stroke-linecap="round"/>
</svg>
