<svg xmlns="http://www.w3.org/2000/svg" viewBox="0 0 1000 600">
  <defs>
    <linearGradient id="bg" x1="0%" y1="0%" x2="100%" y2="100%">
      <stop offset="0%" style="stop-color:#f8fafc"/>
      <stop offset="100%" style="stop-color:#f1f5f9"/>
    </linearGradient>
    <linearGradient id="indigo" x1="0%" y1="0%" x2="100%" y2="100%">
      <stop offset="0%" style="stop-color:#6366f1"/>
      <stop offset="100%" style="stop-color:#4f46e5"/>
    </linearGradient>
  </defs>
  
  <!-- Background -->
  <rect width="1000" height="600" fill="url(#bg)"/>
  
  <!-- Sidebar -->
  <rect width="220" height="600" fill="white"/>
  <rect x="0" y="0" width="220" height="80" fill="url(#indigo)"/>
  <text x="30" y="50" fill="white" font-family="system-ui" font-size="20" font-weight="700">VirtualCare</text>
  
  <!-- Nav Items -->
  <rect x="15" y="100" width="190" height="40" rx="8" fill="#eef2ff"/>
  <text x="55" y="125" fill="#4f46e5" font-family="system-ui" font-size="14" font-weight="600">Dashboard</text>
  <text x="30" y="170" fill="#64748b" font-family="system-ui" font-size="14">Appointments</text>
  <text x="30" y="210" fill="#64748b" font-family="system-ui" font-size="14">Availability</text>
  <text x="30" y="250" fill="#64748b" font-family="system-ui" font-size="14">Messages</text>
  <text x="30" y="290" fill="#64748b" font-family="system-ui" font-size="14">Patients</text>
  
  <!-- Header -->
  <text x="250" y="50" fill="#1e293b" font-family="system-ui" font-size="24" font-weight="700">Good morning, Dr. Johnson</text>
  <text x="250" y="75" fill="#64748b" font-family="system-ui" font-size="14">Friday, January 31, 2026 • 5 appointments today</text>
  
  <!-- Stats Cards -->
  <rect x="250" y="100" width="140" height="90" rx="12" fill="white" style="filter: drop-shadow(0px 2px 8px rgba(0,0,0,0.08))"/>
  <text x="270" y="140" fill="#6366f1" font-family="system-ui" font-size="28" font-weight="700">5</text>
  <text x="270" y="165" fill="#64748b" font-family="system-ui" font-size="11">Today</text>
  
  <rect x="400" y="100" width="140" height="90" rx="12" fill="white" style="filter: drop-shadow(0px 2px 8px rgba(0,0,0,0.08))"/>
  <text x="420" y="140" fill="#3b82f6" font-family="system-ui" font-size="28" font-weight="700">18</text>
  <text x="420" y="165" fill="#64748b" font-family="system-ui" font-size="11">This Week</text>
  
  <rect x="550" y="100" width="140" height="90" rx="12" fill="white" style="filter: drop-shadow(0px 2px 8px rgba(0,0,0,0.08))"/>
  <text x="570" y="140" fill="#10b981" font-family="system-ui" font-size="28" font-weight="700">3</text>
  <text x="570" y="165" fill="#64748b" font-family="system-ui" font-size="11">Unread Messages</text>
  
  <rect x="700" y="100" width="140" height="90" rx="12" fill="white" style="filter: drop-shadow(0px 2px 8px rgba(0,0,0,0.08))"/>
  <text x="720" y="140" fill="#f59e0b" font-family="system-ui" font-size="28" font-weight="700">4.9</text>
  <text x="720" y="165" fill="#64748b" font-family="system-ui" font-size="11">Rating (127 reviews)</text>
  
  <!-- Today's Schedule -->
  <rect x="250" y="210" width="500" height="370" rx="12" fill="white" style="filter: drop-shadow(0px 2px 8px rgba(0,0,0,0.08))"/>
  <text x="270" y="245" fill="#1e293b" font-family="system-ui" font-size="16" font-weight="600">Today's Schedule</text>
  
  <!-- Timeline -->
  <rect x="270" y="270" width="460" height="50" rx="8" fill="#f0fdf4"/>
  <rect x="270" y="270" width="4" height="50" fill="#10b981"/>
  <text x="290" y="295" fill="#1e293b" font-family="system-ui" font-size="12" font-weight="600">9:00 AM</text>
  <text x="370" y="295" fill="#1e293b" font-family="system-ui" font-size="12">John Smith - General Consultation</text>
  <text x="290" y="310" fill="#10b981" font-family="system-ui" font-size="10">Completed</text>
  
  <rect x="270" y="330" width="460" height="50" rx="8" fill="#eff6ff"/>
  <rect x="270" y="330" width="4" height="50" fill="#3b82f6"/>
  <text x="290" y="355" fill="#1e293b" font-family="system-ui" font-size="12" font-weight="600">10:00 AM</text>
  <text x="370" y="355" fill="#1e293b" font-family="system-ui" font-size="12">Maria Garcia - Follow-up Visit</text>
  <text x="290" y="370" fill="#3b82f6" font-family="system-ui" font-size="10">In Progress</text>
  <rect x="620" y="340" width="90" height="28" rx="14" fill="#3b82f6"/>
  <text x="643" y="358" fill="white" font-family="system-ui" font-size="10" font-weight="500">Rejoin</text>
  
  <rect x="270" y="390" width="460" height="50" rx="8" fill="#f1f5f9"/>
  <rect x="270" y="390" width="4" height="50" fill="#94a3b8"/>
  <text x="290" y="415" fill="#1e293b" font-family="system-ui" font-size="12" font-weight="600">11:00 AM</text>
  <text x="370" y="415" fill="#1e293b" font-family="system-ui" font-size="12">Robert Johnson - New Patient</text>
  <rect x="540" y="405" width="40" height="18" rx="9" fill="#fef3c7"/>
  <text x="547" y="417" fill="#d97706" font-family="system-ui" font-size="9">New</text>
  <text x="290" y="430" fill="#64748b" font-family="system-ui" font-size="10">Scheduled</text>
  <rect x="620" y="400" width="90" height="28" rx="14" fill="#6366f1"/>
  <text x="635" y="418" fill="white" font-family="system-ui" font-size="10" font-weight="500">Start Call</text>
  
  <rect x="270" y="450" width="460" height="50" rx="8" fill="#f1f5f9"/>
  <rect x="270" y="450" width="4" height="50" fill="#94a3b8"/>
  <text x="290" y="475" fill="#1e293b" font-family="system-ui" font-size="12" font-weight="600">2:00 PM</text>
  <text x="370" y="475" fill="#1e293b" font-family="system-ui" font-size="12">Emily Chen - Wellness Checkup</text>
  <text x="290" y="490" fill="#64748b" font-family="system-ui" font-size="10">Scheduled</text>
  
  <rect x="270" y="510" width="460" height="50" rx="8" fill="#f1f5f9"/>
  <rect x="270" y="510" width="4" height="50" fill="#94a3b8"/>
  <text x="290" y="535" fill="#1e293b" font-family="system-ui" font-size="12" font-weight="600">3:00 PM</text>
  <text x="370" y="535" fill="#1e293b" font-family="system-ui" font-size="12">David Wilson - Chronic Care</text>
  <text x="290" y="550" fill="#64748b" font-family="system-ui" font-size="10">Scheduled</text>
  
  <!-- Quick Actions -->
  <rect x="770" y="210" width="200" height="200" rx="12" fill="white" style="filter: drop-shadow(0px 2px 8px rgba(0,0,0,0.08))"/>
  <text x="790" y="245" fill="#1e293b" font-family="system-ui" font-size="14" font-weight="600">Quick Actions</text>
  
  <rect x="785" y="265" width="170" height="36" rx="8" fill="#eef2ff"/>
  <text x="810" y="288" fill="#4f46e5" font-family="system-ui" font-size="12">View All Appointments</text>
  
  <rect x="785" y="310" width="170" height="36" rx="8" fill="#f0fdf4"/>
  <text x="810" y="333" fill="#16a34a" font-family="system-ui" font-size="12">Manage Availability</text>
  
  <rect x="785" y="355" width="170" height="36" rx="8" fill="#fef3c7"/>
  <text x="810" y="378" fill="#d97706" font-family="system-ui" font-size="12">Patient Messages</text>
</svg>
